<?xml version="1.0" encoding="utf-8"?>
<!-- Generator: Adobe Illustrator 17.1.0, SVG Export Plug-In . SVG Version: 6.00 Build 0)  -->
<!DOCTYPE svg PUBLIC "-//W3C//DTD SVG 1.1//EN" "http://www.w3.org/Graphics/SVG/1.1/DTD/svg11.dtd" [
	<!ENTITY ns_extend "http://ns.adobe.com/Extensibility/1.0/">
	<!ENTITY ns_ai "http://ns.adobe.com/AdobeIllustrator/10.0/">
	<!ENTITY ns_graphs "http://ns.adobe.com/Graphs/1.0/">
	<!ENTITY ns_vars "http://ns.adobe.com/Variables/1.0/">
	<!ENTITY ns_imrep "http://ns.adobe.com/ImageReplacement/1.0/">
	<!ENTITY ns_sfw "http://ns.adobe.com/SaveForWeb/1.0/">
	<!ENTITY ns_custom "http://ns.adobe.com/GenericCustomNamespace/1.0/">
	<!ENTITY ns_adobe_xpath "http://ns.adobe.com/XPath/1.0/">
]>
<svg version="1.1" id="Layer_1" xmlns:x="&ns_extend;" xmlns:i="&ns_ai;" xmlns:graph="&ns_graphs;"
	 xmlns="http://www.w3.org/2000/svg" xmlns:xlink="http://www.w3.org/1999/xlink" x="0px" y="0px" width="96px" height="96px"
	 viewBox="0 0 96 96" enable-background="new 0 0 96 96" xml:space="preserve">
<metadata>
	<sfw  xmlns="&ns_sfw;">
		<slices></slices>
		<sliceSourceBounds  height="96" width="96" x="131" y="3" bottomLeftOrigin="true"></sliceSourceBounds>
		<optimizationSettings>
			<targetSettings  fileFormat="PNG24Format" targetSettingsID="0">
				<PNG24Format  transparency="true" noMatteColor="false" matteColor="#FFFFFF" interlaced="false" filtered="false">
					</PNG24Format>
			</targetSettings>
		</optimizationSettings>
	</sfw>
</metadata>
<g>
	<rect fill="none" width="96" height="96"/>
	<g id="DO_NOT_EDIT_-_SHADOW">
		<path id="SHADOW" opacity="0.4" enable-background="new    " d="M88,49c0,29.633-10.363,40-40,40C18.365,89,8,78.633,8,49
			C8,19.366,18.366,9,48,9C77.637,9,88,19.365,88,49z"/>
	</g>
	<linearGradient id="SVGID_1_" gradientUnits="userSpaceOnUse" x1="68" y1="48" x2="68" y2="8">
		<stop  offset="0.1604" style="stop-color:#83786C"/>
		<stop  offset="0.5215" style="stop-color:#9C9288"/>
		<stop  offset="0.8978" style="stop-color:#BAB1A8"/>
	</linearGradient>
	<path fill="url(#SVGID_1_)" d="M48,8v40h40C88,18.364,77.635,8,48,8z"/>
	<linearGradient id="SVGID_2_" gradientUnits="userSpaceOnUse" x1="28" y1="48" x2="28" y2="8">
		<stop  offset="0.0314" style="stop-color:#DFD1C4"/>
		<stop  offset="0.5215" style="stop-color:#EDE5DE"/>
		<stop  offset="0.8978" style="stop-color:#FDFDFC"/>
	</linearGradient>
	<path fill="url(#SVGID_2_)" d="M48,8C18.362,8,8,18.364,8,48h40V8z"/>
	<linearGradient id="SVGID_3_" gradientUnits="userSpaceOnUse" x1="28.024" y1="88" x2="28.024" y2="48">
		<stop  offset="0.0367" style="stop-color:#E9B485"/>
		<stop  offset="0.5484" style="stop-color:#F2C39B"/>
		<stop  offset="1" style="stop-color:#F7D1AF"/>
	</linearGradient>
	<path fill="url(#SVGID_3_)" d="M48,88c0.016,0,0.032-0.001,0.048-0.001V48H8C8,77.633,18.362,88,48,88z"/>
	<linearGradient id="SVGID_4_" gradientUnits="userSpaceOnUse" x1="68" y1="88" x2="68" y2="48">
		<stop  offset="0" style="stop-color:#D96A0B"/>
		<stop  offset="0.5" style="stop-color:#EB7C23"/>
		<stop  offset="0.9462" style="stop-color:#FA8B37"/>
	</linearGradient>
	<path fill="url(#SVGID_4_)" d="M48,88c29.635,0,40-10.367,40-40H48V88z"/>
	
		<linearGradient id="SVGID_5_" gradientUnits="userSpaceOnUse" x1="218.96" y1="263.6602" x2="218.96" y2="183.6602" gradientTransform="matrix(1 0 0 1 -170.96 -175.6602)">
		<stop  offset="0" style="stop-color:#211900;stop-opacity:0.1"/>
		<stop  offset="1" style="stop-color:#FFFFFF;stop-opacity:0.3"/>
	</linearGradient>
	<path fill="url(#SVGID_5_)" d="M48,8C18.363,8,8,18.365,8,48s10.363,40,40,40c29.636,0,40-10.365,40-40S77.636,8,48,8z M48,87
		C19.104,87,9,76.893,9,48C9,19.104,19.104,9,48,9s39,10.104,39,39C87,76.893,76.895,87,48,87z"/>
	<g>
		<path fill="#686057" d="M24.823,39.569c-0.392,0-0.71-0.308-0.725-0.7c-0.02-0.615,0.082-1.216,0.3-1.787
			c0.322-0.864,0.844-1.724,1.548-2.554c0.679-0.799,1.663-1.728,2.923-2.759c1.857-1.523,3.122-2.733,3.757-3.599
			c0.576-0.786,0.868-1.517,0.868-2.173c0-0.657-0.228-1.195-0.697-1.646c-0.47-0.452-1.107-0.682-1.895-0.682
			c-0.837,0-1.506,0.244-1.987,0.725c-0.483,0.483-0.731,1.185-0.736,2.087c-0.002,0.17-0.111,0.415-0.232,0.529
			c-0.148,0.128-0.318,0.192-0.493,0.192c-0.035,0-0.035,0-2.297-0.232c-0.393-0.042-0.683-0.395-0.648-0.786
			c0.169-1.844,0.83-3.281,1.962-4.272c1.125-0.984,2.632-1.483,4.479-1.483c1.875,0,3.394,0.541,4.513,1.606
			c1.13,1.075,1.703,2.424,1.703,4.01c0,0.798-0.165,1.592-0.49,2.361c-0.319,0.752-0.844,1.543-1.563,2.351
			c-0.688,0.774-1.834,1.841-3.408,3.171c-1.212,1.019-2.015,1.728-2.389,2.11h7.149c0.4,0,0.725,0.325,0.725,0.725v2.079
			c0,0.4-0.325,0.725-0.725,0.725H24.823z"/>
		<path fill="#FAF5EF" d="M65.644,39.719c-1.922,0-3.458-0.707-4.568-2.1c-1.261-1.593-1.9-4.154-1.9-7.614
			c0-2.151,0.229-3.921,0.682-5.261c0.472-1.396,1.191-2.496,2.14-3.268c0.973-0.794,2.2-1.196,3.647-1.196
			c1.061,0,2.013,0.221,2.828,0.656c0.818,0.437,1.503,1.073,2.034,1.892c0.504,0.779,0.903,1.731,1.187,2.833
			c0.278,1.083,0.42,2.544,0.42,4.344c0,2.134-0.228,3.896-0.675,5.235c-0.467,1.396-1.184,2.498-2.133,3.274
			C68.331,39.314,67.098,39.719,65.644,39.719z M65.621,23.521c-0.761,0-1.328,0.303-1.788,0.954
			c-0.447,0.646-0.984,2.132-0.984,5.53c0,3.396,0.479,4.787,0.882,5.355c0.537,0.76,1.163,1.129,1.914,1.129
			c0.749,0,1.375-0.371,1.914-1.135c0.402-0.572,0.882-1.964,0.882-5.35c0-3.405-0.479-4.793-0.881-5.359
			C67.021,23.89,66.386,23.521,65.621,23.521z"/>
		<path fill="#8F8275" d="M32.194,75.533c-0.4,0-0.725-0.325-0.725-0.726v-3.492h-6.917c-0.4,0-0.725-0.325-0.725-0.726v-1.982
			c0-0.103,0.032-0.203,0.09-0.287l8.08-11.545c0.089-0.126,0.231-0.205,0.385-0.212c0,0,1.948-0.096,1.948-0.096
			c0.425,0,0.751,0.325,0.751,0.725v10.69h1.654c0.4,0,0.725,0.325,0.725,0.725v1.982c0,0.4-0.325,0.726-0.725,0.726h-1.654v3.492
			c0,0.4-0.325,0.726-0.725,0.726H32.194z M31.469,67.883v-4.903l-3.404,4.903H31.469z"/>
		<path fill="#FBCD97" d="M65.644,75.719c-1.925,0-3.509-0.588-4.709-1.748c-1.208-1.166-1.82-2.638-1.82-4.372
			c0-1.3,0.342-2.415,1.018-3.313c0.37-0.492,0.828-0.902,1.368-1.225c-0.354-0.265-0.652-0.567-0.893-0.904
			c-0.521-0.733-0.784-1.61-0.784-2.608c0-1.482,0.541-2.747,1.609-3.759c1.056-1,2.46-1.508,4.175-1.508
			c1.725,0,3.142,0.519,4.213,1.541c1.082,1.029,1.631,2.304,1.631,3.786c0,0.966-0.262,1.825-0.776,2.552
			c-0.248,0.35-0.557,0.661-0.924,0.933c0.578,0.359,1.06,0.805,1.438,1.33c0.653,0.908,0.984,1.997,0.984,3.235
			c0,1.704-0.612,3.157-1.821,4.32C69.153,75.133,67.569,75.719,65.644,75.719z M65.596,66.804c-0.813,0-1.491,0.268-2.016,0.795
			c-0.525,0.529-0.792,1.207-0.792,2.013c0,0.498,0.121,0.989,0.36,1.462c0.224,0.442,0.562,0.789,1.005,1.031
			c0.466,0.256,0.976,0.386,1.515,0.386c0.831,0,1.521-0.266,2.05-0.788c0.527-0.521,0.794-1.2,0.794-2.02
			c0-0.835-0.276-1.53-0.822-2.066C67.141,67.077,66.436,66.804,65.596,66.804z M65.632,59.509c-0.626,0-1.147,0.198-1.549,0.589
			c-0.402,0.39-0.598,0.84-0.598,1.378c0,0.638,0.192,1.137,0.589,1.526c0.394,0.389,0.925,0.585,1.581,0.585
			c0.641,0,1.145-0.189,1.54-0.579c0.393-0.386,0.583-0.848,0.583-1.411c0-0.597-0.198-1.083-0.606-1.484
			C66.76,59.706,66.257,59.509,65.632,59.509z"/>
	</g>
	<path opacity="0.1" fill="#FFFFFF" d="M87.989,48H88C88,18.364,77.635,8,48,8v1C77.295,9,87.752,19.14,87.989,48z"/>
	<path opacity="0.2" fill="#FFFFFF" d="M8,48h0.011C8.248,19.14,18.702,9,48,9V8C18.362,8,8,18.364,8,48z"/>
	<path opacity="0.25" fill="#FFFFFF" d="M8,48c0,0.34,0.008,0.665,0.011,1h40.037v-1H8z"/>
	<path opacity="0.25" fill="#FFFFFF" d="M88,48H48v1h39.989C87.992,48.665,88,48.34,88,48z"/>
	<path opacity="0.2" d="M48,47v1h40c0-0.34-0.008-0.665-0.011-1H48z"/>
	<path opacity="0.2" d="M8,48h40v-1H8.011C8.008,47.335,8,47.66,8,48z"/>
	<path opacity="0.1" d="M8.011,48H8c0,29.633,10.362,40,40,40c0.016,0,0.032-0.001,0.048-0.001v-1C48.032,86.999,48.016,87,48,87
		C18.702,87,8.248,76.857,8.011,48z"/>
	<path opacity="0.1" d="M48,87v1c29.635,0,40-10.367,40-40h-0.011C87.752,76.857,77.295,87,48,87z"/>
	<path opacity="0.2" d="M47,87.989C47.335,87.992,47.66,88,48,88s0.665-0.008,1-0.011V8.011C48.665,8.008,48.34,8,48,8
		s-0.665,0.008-1,0.011V87.989z"/>
	<path opacity="0.2" d="M65.656,64.087c0.768,0,1.404-0.243,1.891-0.722c0.486-0.478,0.732-1.073,0.732-1.768
		c0-0.727-0.254-1.346-0.756-1.841c-0.502-0.495-1.138-0.746-1.891-0.746c-0.761,0-1.399,0.245-1.897,0.73
		c-0.497,0.482-0.749,1.066-0.749,1.737c0,0.767,0.248,1.401,0.738,1.882C64.214,63.842,64.864,64.087,65.656,64.087z
		 M64.083,60.098c0.401-0.391,0.923-0.589,1.549-0.589c0.625,0,1.128,0.197,1.54,0.604c0.408,0.401,0.606,0.888,0.606,1.484
		c0,0.563-0.19,1.025-0.583,1.411c-0.396,0.39-0.899,0.579-1.54,0.579c-0.656,0-1.188-0.196-1.581-0.585
		c-0.396-0.39-0.589-0.889-0.589-1.526C63.486,60.938,63.681,60.487,64.083,60.098z M71.189,66.423
		c-0.378-0.525-0.859-0.971-1.438-1.33c0.367-0.271,0.676-0.583,0.924-0.933c0.515-0.727,0.776-1.586,0.776-2.552
		c0-1.482-0.549-2.757-1.631-3.786c-1.071-1.022-2.488-1.541-4.213-1.541c-1.715,0-3.119,0.508-4.175,1.508
		c-1.068,1.012-1.609,2.276-1.609,3.759c0,0.998,0.264,1.875,0.784,2.608c0.24,0.337,0.539,0.64,0.893,0.904
		c-0.54,0.322-0.998,0.732-1.368,1.225c-0.676,0.898-1.018,2.014-1.018,3.313c0,1.734,0.612,3.206,1.82,4.372
		c1.2,1.16,2.784,1.748,4.709,1.748s3.509-0.586,4.708-1.74c1.209-1.163,1.821-2.616,1.821-4.32
		C72.173,68.42,71.842,67.331,71.189,66.423z M70.006,73.618c-1.104,1.062-2.572,1.601-4.362,1.601c-1.79,0-3.257-0.541-4.361-1.608
		c-1.107-1.069-1.668-2.419-1.668-4.013c0-1.189,0.309-2.203,0.917-3.013c0.497-0.661,1.174-1.156,2.014-1.475
		c-0.657-0.322-1.171-0.74-1.531-1.245c-0.459-0.646-0.691-1.426-0.691-2.318c0-1.339,0.489-2.482,1.452-3.396
		c0.96-0.91,2.25-1.371,3.832-1.371c1.59,0,2.892,0.472,3.868,1.402c0.98,0.932,1.476,2.085,1.476,3.425
		c0,0.86-0.231,1.622-0.685,2.262c-0.361,0.51-0.876,0.932-1.534,1.255c0.869,0.371,1.558,0.904,2.05,1.589
		c0.591,0.821,0.89,1.811,0.89,2.943C71.673,71.221,71.112,72.554,70.006,73.618z M65.596,66.303c-0.951,0-1.748,0.317-2.37,0.942
		c-0.622,0.627-0.938,1.423-0.938,2.365c0,0.578,0.139,1.146,0.415,1.688c0.271,0.534,0.678,0.953,1.21,1.244
		c0.541,0.297,1.132,0.447,1.755,0.447c0.968,0,1.775-0.314,2.401-0.932c0.625-0.618,0.942-1.417,0.942-2.375
		c0-0.974-0.327-1.79-0.971-2.423C67.394,66.625,66.572,66.303,65.596,66.303z M67.718,71.702c-0.528,0.522-1.219,0.788-2.05,0.788
		c-0.539,0-1.049-0.13-1.515-0.386c-0.443-0.242-0.781-0.589-1.005-1.031c-0.239-0.473-0.36-0.964-0.36-1.462
		c0-0.806,0.267-1.483,0.792-2.013c0.524-0.527,1.202-0.795,2.016-0.795c0.84,0,1.545,0.273,2.094,0.813
		c0.546,0.536,0.822,1.231,0.822,2.066C68.512,70.502,68.246,71.182,67.718,71.702z M65.62,23.021c-0.924,0-1.643,0.382-2.196,1.166
		c-0.714,1.029-1.076,2.986-1.076,5.818c0,2.832,0.327,4.73,0.974,5.644c0.629,0.89,1.41,1.34,2.322,1.34
		c0.912,0,1.692-0.453,2.322-1.346c0.646-0.918,0.974-2.815,0.974-5.638c0-2.838-0.327-4.739-0.974-5.649
		C67.337,23.471,66.547,23.021,65.62,23.021z M67.558,35.355c-0.539,0.764-1.165,1.135-1.914,1.135
		c-0.751,0-1.377-0.369-1.914-1.129c-0.402-0.569-0.882-1.96-0.882-5.355c0-3.398,0.537-4.884,0.984-5.53
		c0.46-0.651,1.027-0.954,1.788-0.954c0.766,0,1.4,0.368,1.938,1.125c0.401,0.566,0.881,1.955,0.881,5.359
		C68.44,33.391,67.96,34.784,67.558,35.355z M71.693,25.662c-0.283-1.101-0.683-2.054-1.187-2.833
		c-0.531-0.819-1.216-1.456-2.034-1.892c-0.815-0.436-1.768-0.656-2.828-0.656c-1.447,0-2.675,0.402-3.647,1.196
		c-0.948,0.772-1.668,1.872-2.14,3.268c-0.452,1.34-0.682,3.11-0.682,5.261c0,3.46,0.64,6.021,1.9,7.614
		c1.11,1.393,2.646,2.1,4.568,2.1c1.454,0,2.687-0.405,3.661-1.205c0.949-0.776,1.666-1.878,2.133-3.274
		c0.447-1.339,0.675-3.101,0.675-5.235C72.113,28.206,71.971,26.745,71.693,25.662z M70.964,35.082
		c-0.436,1.304-1.1,2.329-1.975,3.046c-0.883,0.724-2.009,1.091-3.345,1.091c-1.762,0-3.167-0.643-4.177-1.911
		c-1.189-1.501-1.792-3.958-1.792-7.302c0-2.097,0.221-3.813,0.655-5.101c0.44-1.305,1.107-2.328,1.982-3.04
		c0.881-0.719,2.003-1.084,3.332-1.084c0.979,0,1.851,0.201,2.593,0.597c0.744,0.396,1.366,0.976,1.849,1.723
		c0.475,0.733,0.853,1.636,1.122,2.685c0.268,1.043,0.404,2.463,0.404,4.22C71.613,32.087,71.394,33.795,70.964,35.082z
		 M36.467,36.04h-7.149c0.374-0.382,1.177-1.091,2.389-2.11c1.574-1.33,2.72-2.397,3.408-3.171c0.718-0.807,1.244-1.598,1.563-2.351
		c0.325-0.769,0.49-1.563,0.49-2.361c0-1.585-0.573-2.935-1.703-4.01c-1.12-1.065-2.638-1.606-4.513-1.606
		c-1.847,0-3.354,0.499-4.479,1.483c-1.133,0.992-1.793,2.429-1.962,4.272c-0.035,0.391,0.255,0.743,0.648,0.786
		c2.262,0.232,2.262,0.232,2.297,0.232c0.175,0,0.345-0.064,0.493-0.192c0.121-0.114,0.23-0.358,0.232-0.529
		c0.005-0.902,0.253-1.604,0.736-2.087c0.481-0.481,1.149-0.725,1.987-0.725c0.787,0,1.424,0.229,1.895,0.682
		c0.469,0.451,0.697,0.989,0.697,1.646c0,0.656-0.292,1.387-0.868,2.173c-0.635,0.865-1.899,2.076-3.757,3.599
		c-1.26,1.031-2.244,1.959-2.923,2.759c-0.704,0.83-1.226,1.69-1.548,2.554c-0.219,0.571-0.32,1.171-0.3,1.787
		c0.014,0.392,0.333,0.7,0.725,0.7h11.644c0.4,0,0.725-0.325,0.725-0.725v-2.079C37.192,36.365,36.867,36.04,36.467,36.04z
		 M36.692,38.844c0,0.124-0.101,0.225-0.225,0.225H24.823c-0.122,0-0.221-0.096-0.225-0.218c-0.017-0.547,0.073-1.082,0.267-1.59
		c0.303-0.812,0.795-1.623,1.462-2.409c0.66-0.776,1.621-1.684,2.858-2.696c1.891-1.55,3.184-2.792,3.843-3.69
		c0.641-0.874,0.965-1.705,0.965-2.469c0-0.789-0.286-1.464-0.85-2.006c-0.566-0.545-1.32-0.821-2.241-0.821
		c-0.975,0-1.762,0.293-2.34,0.871c-0.579,0.579-0.876,1.399-0.883,2.438c-0.001,0.032-0.051,0.145-0.074,0.166
		c-0.044,0.038-0.097,0.058-0.151,0.058c-0.008,0-0.009,0-2.246-0.23c-0.122-0.013-0.212-0.123-0.201-0.244
		c0.157-1.711,0.761-3.036,1.794-3.94c1.031-0.902,2.427-1.36,4.149-1.36c1.742,0,3.145,0.494,4.169,1.468
		c1.027,0.977,1.548,2.204,1.548,3.647c0,0.73-0.152,1.459-0.45,2.166c-0.298,0.702-0.794,1.446-1.476,2.212
		c-0.672,0.757-1.802,1.807-3.357,3.122c-1.284,1.078-2.119,1.818-2.48,2.2c-0.248,0.261-0.469,0.527-0.658,0.791h8.221
		c0.124,0,0.225,0.101,0.225,0.225V38.844z M36.736,67.883h-1.654v-10.69c0-0.399-0.326-0.725-0.751-0.725
		c0,0-1.948,0.096-1.948,0.096c-0.154,0.007-0.296,0.086-0.385,0.212l-8.08,11.545c-0.059,0.084-0.09,0.185-0.09,0.287v1.982
		c0,0.4,0.325,0.726,0.725,0.726h6.917v3.492c0,0.4,0.325,0.726,0.725,0.726h2.163c0.4,0,0.725-0.325,0.725-0.726v-3.492h1.654
		c0.4,0,0.725-0.325,0.725-0.726v-1.982C37.461,68.208,37.136,67.883,36.736,67.883z M36.961,70.59c0,0.124-0.101,0.225-0.225,0.225
		h-2.154v3.993c0,0.124-0.101,0.225-0.225,0.225h-2.162c-0.124,0-0.225-0.101-0.225-0.225v-3.993h-7.417
		c-0.124,0-0.225-0.101-0.225-0.225v-1.982l8.08-11.545l1.947-0.096c0.127,0,0.228,0.101,0.228,0.225v11.19h2.154
		c0.124,0,0.225,0.101,0.225,0.225V70.59z M31.969,68.382v-6.999l-4.86,6.999H31.969z M31.469,67.883h-3.404l3.404-4.903V67.883z"/>
	<g opacity="0.2">
		<path d="M59.857,25.745c0.472-1.396,1.191-2.496,2.14-3.268c0.973-0.794,2.2-1.196,3.647-1.196c1.061,0,2.013,0.221,2.828,0.656
			c0.818,0.437,1.503,1.073,2.034,1.892c0.504,0.779,0.903,1.731,1.187,2.833c0.247,0.962,0.38,2.239,0.408,3.77
			c0.002-0.145,0.012-0.277,0.012-0.426c0-1.8-0.142-3.261-0.42-4.344c-0.283-1.101-0.683-2.054-1.187-2.833
			c-0.531-0.819-1.216-1.456-2.034-1.892c-0.815-0.436-1.768-0.656-2.828-0.656c-1.447,0-2.675,0.402-3.647,1.196
			c-0.948,0.772-1.668,1.872-2.14,3.268c-0.452,1.34-0.682,3.11-0.682,5.261c0,0.185,0.009,0.358,0.013,0.538
			C59.22,28.607,59.439,26.985,59.857,25.745z"/>
		<path d="M71.189,66.423c-0.236-0.327-0.525-0.612-0.839-0.876c-0.18,0.195-0.374,0.38-0.598,0.546
			c0.578,0.359,1.06,0.805,1.438,1.33c0.581,0.807,0.892,1.765,0.957,2.836c0.018-0.197,0.027-0.397,0.027-0.601
			C72.173,68.42,71.842,67.331,71.189,66.423z"/>
		<path d="M65.668,72.49c-0.539,0-1.049-0.13-1.515-0.386c-0.443-0.242-0.781-0.589-1.005-1.031
			c-0.172-0.34-0.261-0.691-0.309-1.045c-0.034,0.186-0.051,0.381-0.051,0.584c0,0.498,0.121,0.989,0.36,1.462
			c0.224,0.442,0.562,0.789,1.005,1.031c0.466,0.256,0.976,0.386,1.515,0.386c0.831,0,1.521-0.266,2.05-0.788
			c0.527-0.521,0.794-1.2,0.794-2.02c0-0.173-0.019-0.335-0.043-0.496c-0.09,0.596-0.337,1.107-0.751,1.515
			C67.19,72.225,66.5,72.49,65.668,72.49z"/>
		<path d="M69.821,57.822c-1.071-1.022-2.488-1.541-4.213-1.541c-1.715,0-3.119,0.508-4.175,1.508
			c-1.068,1.012-1.609,2.276-1.609,3.759c0,0.2,0.018,0.392,0.04,0.582c0.095-1.299,0.606-2.428,1.57-3.341
			c1.056-1,2.46-1.508,4.175-1.508c1.725,0,3.142,0.519,4.213,1.541c0.976,0.928,1.494,2.066,1.591,3.365
			c0.022-0.189,0.04-0.381,0.04-0.579C71.452,60.126,70.903,58.852,69.821,57.822z"/>
		<path d="M64.075,64.002c0.394,0.389,0.925,0.585,1.581,0.585c0.641,0,1.145-0.189,1.54-0.579c0.393-0.386,0.583-0.848,0.583-1.411
			c0-0.181-0.025-0.348-0.061-0.51c-0.082,0.348-0.25,0.654-0.522,0.921c-0.396,0.39-0.899,0.579-1.54,0.579
			c-0.656,0-1.188-0.196-1.581-0.585c-0.276-0.271-0.447-0.6-0.529-0.987c-0.036,0.147-0.06,0.299-0.06,0.461
			C63.486,63.113,63.678,63.612,64.075,64.002z"/>
		<path d="M60.132,67.285c0.37-0.492,0.828-0.902,1.368-1.225c-0.226-0.169-0.421-0.359-0.601-0.559
			c-0.283,0.234-0.545,0.489-0.767,0.783c-0.676,0.898-1.018,2.014-1.018,3.313c0,0.205,0.01,0.405,0.027,0.602
			C59.206,69.074,59.528,68.089,60.132,67.285z"/>
		<path d="M63.73,36.361c0.537,0.76,1.163,1.129,1.914,1.129c0.749,0,1.375-0.371,1.914-1.135c0.402-0.572,0.882-1.964,0.882-5.35
			c0-0.18-0.006-0.332-0.009-0.501c-0.047,3.01-0.492,4.309-0.873,4.851c-0.539,0.764-1.165,1.135-1.914,1.135
			c-0.751,0-1.377-0.369-1.914-1.129c-0.38-0.537-0.823-1.83-0.872-4.828c-0.003,0.16-0.01,0.304-0.01,0.473
			C62.848,34.401,63.328,35.792,63.73,36.361z"/>
		<polygon points="31.469,68.883 31.469,67.883 28.76,67.883 28.065,68.883 		"/>
		<path d="M31.997,57.775c0.089-0.126,0.231-0.205,0.385-0.212c0,0,1.948-0.096,1.948-0.096c0.425,0,0.751,0.325,0.751,0.725v-1
			c0-0.399-0.326-0.725-0.751-0.725c0,0-1.948,0.096-1.948,0.096c-0.154,0.007-0.296,0.086-0.385,0.212l-8.08,11.545
			c-0.059,0.084-0.09,0.185-0.09,0.287v1c0-0.103,0.032-0.203,0.09-0.287L31.997,57.775z"/>
		<path d="M36.736,67.883h-1.654v1h1.654c0.4,0,0.725,0.325,0.725,0.725v-1C37.461,68.208,37.136,67.883,36.736,67.883z"/>
		<path d="M26.472,22.915c1.125-0.984,2.632-1.483,4.479-1.483c1.875,0,3.394,0.541,4.513,1.606
			c1.037,0.987,1.582,2.215,1.668,3.635c0.022-0.208,0.035-0.417,0.035-0.625c0-1.585-0.573-2.935-1.703-4.01
			c-1.12-1.065-2.638-1.606-4.513-1.606c-1.847,0-3.354,0.499-4.479,1.483c-1.133,0.992-1.793,2.429-1.962,4.272
			c-0.013,0.148,0.032,0.284,0.099,0.406C24.858,25.042,25.468,23.794,26.472,22.915z"/>
		<path d="M24.399,38.083c0.322-0.864,0.844-1.724,1.548-2.554c0.679-0.799,1.663-1.728,2.923-2.759
			c1.857-1.523,3.122-2.733,3.757-3.599c0.576-0.786,0.868-1.517,0.868-2.173c0-0.177-0.02-0.345-0.053-0.506
			c-0.108,0.522-0.38,1.085-0.815,1.678c-0.635,0.865-1.899,2.076-3.757,3.599c-1.26,1.031-2.244,1.959-2.923,2.759
			c-0.704,0.83-1.226,1.69-1.548,2.554c-0.219,0.571-0.32,1.171-0.3,1.787c0.003,0.079,0.026,0.152,0.052,0.223
			C24.198,38.748,24.274,38.409,24.399,38.083z"/>
		<path d="M36.467,36.04h-6.057c-0.499,0.436-0.875,0.779-1.092,1h7.149c0.4,0,0.725,0.325,0.725,0.725v-1
			C37.192,36.365,36.867,36.04,36.467,36.04z"/>
	</g>
</g>
</svg>
