<?xml version="1.0" encoding="utf-8"?>
<!-- Generator: Adobe Illustrator 17.1.0, SVG Export Plug-In . SVG Version: 6.00 Build 0)  -->
<!DOCTYPE svg PUBLIC "-//W3C//DTD SVG 1.1//EN" "http://www.w3.org/Graphics/SVG/1.1/DTD/svg11.dtd" [
	<!ENTITY ns_extend "http://ns.adobe.com/Extensibility/1.0/">
	<!ENTITY ns_ai "http://ns.adobe.com/AdobeIllustrator/10.0/">
	<!ENTITY ns_graphs "http://ns.adobe.com/Graphs/1.0/">
	<!ENTITY ns_vars "http://ns.adobe.com/Variables/1.0/">
	<!ENTITY ns_imrep "http://ns.adobe.com/ImageReplacement/1.0/">
	<!ENTITY ns_sfw "http://ns.adobe.com/SaveForWeb/1.0/">
	<!ENTITY ns_custom "http://ns.adobe.com/GenericCustomNamespace/1.0/">
	<!ENTITY ns_adobe_xpath "http://ns.adobe.com/XPath/1.0/">
]>
<svg version="1.1" xmlns:x="&ns_extend;" xmlns:i="&ns_ai;" xmlns:graph="&ns_graphs;"
	 xmlns="http://www.w3.org/2000/svg" xmlns:xlink="http://www.w3.org/1999/xlink" x="0px" y="0px" width="96px" height="96px"
	 viewBox="0 0 96 96" enable-background="new 0 0 96 96" xml:space="preserve">
<metadata>
	<sfw  xmlns="&ns_sfw;">
		<slices></slices>
		<sliceSourceBounds  width="198" height="96" x="1" y="3" bottomLeftOrigin="true"></sliceSourceBounds>
	</sfw>
</metadata>
<g id="图层_1">
	<g id="GRAY5" display="none">
		
			<linearGradient id="GRAY_5_1_" gradientUnits="userSpaceOnUse" x1="510.9805" y1="856.8899" x2="510.9805" y2="936.8689" gradientTransform="matrix(1 0 0 1 -352.9805 -848.8799)">
			<stop  offset="0.0364" style="stop-color:#DDDDDD"/>
			<stop  offset="0.4616" style="stop-color:#BFBFC1"/>
			<stop  offset="1" style="stop-color:#949499"/>
		</linearGradient>
		<path id="GRAY_5" display="inline" fill="url(#GRAY_5_1_)" d="M118,47.989c0,29.633,10.365,40,40,40c29.637,0,40-10.367,40-40
			c0-28.985-9.926-39.53-38.091-39.979h-3.817C127.928,8.459,118,19.004,118,47.989z"/>
		
			<linearGradient id="HIGHLIGHT_GRA5_1_" gradientUnits="userSpaceOnUse" x1="510.9805" y1="856.8799" x2="510.9805" y2="936.8799" gradientTransform="matrix(1 0 0 1 -352.9805 -848.8799)">
			<stop  offset="0.0364" style="stop-color:#FFFFFF"/>
			<stop  offset="0.3366" style="stop-color:#E1E1E3"/>
			<stop  offset="0.9874" style="stop-color:#96969A"/>
			<stop  offset="1" style="stop-color:#949499"/>
		</linearGradient>
		<path id="HIGHLIGHT_GRA5" display="inline" opacity="0.25" fill="url(#HIGHLIGHT_GRA5_1_)" enable-background="new    " d="M158,8
			c-29.635,0-40,10.365-40,40c0,29.633,10.365,40,40,40c29.637,0,40-10.367,40-40C198,18.365,187.637,8,158,8z M158,87.023
			c-29.158,0-39-9.849-39-39.023s9.842-39.023,39-39.023S197,18.824,197,48S187.158,87.023,158,87.023z"/>
	</g>
	<g id="GRAY4" display="none">
		
			<linearGradient id="GRAY_4_1_" gradientUnits="userSpaceOnUse" x1="510.9805" y1="856.8899" x2="510.9805" y2="936.8689" gradientTransform="matrix(1 0 0 1 -352.9805 -848.8799)">
			<stop  offset="0.0364" style="stop-color:#E0E0E0"/>
			<stop  offset="0.3262" style="stop-color:#D6D6D6"/>
			<stop  offset="0.8148" style="stop-color:#BCBCBC"/>
			<stop  offset="1" style="stop-color:#B0B0B0"/>
		</linearGradient>
		<path id="GRAY_4" display="inline" fill="url(#GRAY_4_1_)" d="M118,47.989c0,29.633,10.365,40,40,40c29.637,0,40-10.367,40-40
			c0-28.985-9.926-39.53-38.091-39.979h-3.817C127.928,8.459,118,19.004,118,47.989z"/>
		
			<linearGradient id="HIGHLIGHT_GRA4_2_" gradientUnits="userSpaceOnUse" x1="510.9805" y1="856.8799" x2="510.9805" y2="936.8799" gradientTransform="matrix(1 0 0 1 -352.9805 -848.8799)">
			<stop  offset="0.0364" style="stop-color:#E8E8E8"/>
			<stop  offset="0.2978" style="stop-color:#DEDEDE"/>
			<stop  offset="0.7385" style="stop-color:#C4C4C4"/>
			<stop  offset="1" style="stop-color:#B1B1B1"/>
		</linearGradient>
		<path id="HIGHLIGHT_GRA4_1_" display="inline" fill="url(#HIGHLIGHT_GRA4_2_)" d="M158,8c-29.635,0-40,10.365-40,40
			c0,29.633,10.365,40,40,40c29.637,0,40-10.367,40-40C198,18.365,187.637,8,158,8z M158,87.023c-29.158,0-39-9.849-39-39.023
			s9.842-39.023,39-39.023S197,18.824,197,48S187.158,87.023,158,87.023z"/>
	</g>
	<g id="GRAY3" display="none">
		
			<linearGradient id="GRAY_3_1_" gradientUnits="userSpaceOnUse" x1="510.9805" y1="856.8899" x2="510.9805" y2="936.8689" gradientTransform="matrix(1 0 0 1 -352.9805 -848.8799)">
			<stop  offset="0.0364" style="stop-color:#E9E9E9"/>
			<stop  offset="0.3218" style="stop-color:#DFDFDF"/>
			<stop  offset="0.8028" style="stop-color:#C5C5C5"/>
			<stop  offset="1" style="stop-color:#B8B8B8"/>
		</linearGradient>
		<path id="GRAY_3" display="inline" fill="url(#GRAY_3_1_)" d="M118,47.989c0,29.633,10.365,40,40,40c29.637,0,40-10.367,40-40
			c0-28.985-9.926-39.53-38.091-39.979h-3.817C127.928,8.459,118,19.004,118,47.989z"/>
		
			<linearGradient id="HIGHLIGHT_GRA3_2_" gradientUnits="userSpaceOnUse" x1="510.9805" y1="856.8799" x2="510.9805" y2="936.8799" gradientTransform="matrix(1 0 0 1 -352.9805 -848.8799)">
			<stop  offset="0.0364" style="stop-color:#EFEFEF"/>
			<stop  offset="0.3133" style="stop-color:#E5E5E5"/>
			<stop  offset="0.7799" style="stop-color:#CBCBCB"/>
			<stop  offset="1" style="stop-color:#BCBCBC"/>
		</linearGradient>
		<path id="HIGHLIGHT_GRA3_1_" display="inline" fill="url(#HIGHLIGHT_GRA3_2_)" d="M158,8c-29.635,0-40,10.365-40,40
			c0,29.633,10.365,40,40,40c29.637,0,40-10.367,40-40C198,18.365,187.637,8,158,8z M158,87.023c-29.158,0-39-9.849-39-39.023
			s9.842-39.023,39-39.023S197,18.824,197,48S187.158,87.023,158,87.023z"/>
	</g>
	<g id="GRAY2" display="none">
		
			<linearGradient id="GRAY_2_1_" gradientUnits="userSpaceOnUse" x1="510.9805" y1="856.8899" x2="510.9805" y2="936.8689" gradientTransform="matrix(1 0 0 1 -352.9805 -848.8799)">
			<stop  offset="0.0364" style="stop-color:#EEEEEE"/>
			<stop  offset="0.3262" style="stop-color:#E4E4E4"/>
			<stop  offset="0.8148" style="stop-color:#CACACA"/>
			<stop  offset="1" style="stop-color:#BEBEBE"/>
		</linearGradient>
		<path id="GRAY_2" display="inline" fill="url(#GRAY_2_1_)" d="M118,47.989c0,29.633,10.365,40,40,40c29.637,0,40-10.367,40-40
			c0-28.985-9.926-39.53-38.091-39.979h-3.817C127.928,8.459,118,19.004,118,47.989z"/>
		
			<linearGradient id="HIGHLIGHT_GRA2_1_" gradientUnits="userSpaceOnUse" x1="510.9805" y1="856.8799" x2="510.9805" y2="936.8799" gradientTransform="matrix(1 0 0 1 -352.9805 -848.8799)">
			<stop  offset="0.0364" style="stop-color:#F2F2F2"/>
			<stop  offset="0.3133" style="stop-color:#E8E8E8"/>
			<stop  offset="0.7799" style="stop-color:#CECECE"/>
			<stop  offset="1" style="stop-color:#BFBFBF"/>
		</linearGradient>
		<path id="HIGHLIGHT_GRA2" display="inline" fill="url(#HIGHLIGHT_GRA2_1_)" d="M158,8c-29.635,0-40,10.365-40,40
			c0,29.633,10.365,40,40,40c29.637,0,40-10.367,40-40C198,18.365,187.637,8,158,8z M158,87.023c-29.158,0-39-9.849-39-39.023
			s9.842-39.023,39-39.023S197,18.824,197,48S187.158,87.023,158,87.023z"/>
	</g>
	<rect fill="none" width="96" height="96"/>
	<g id="DO_NOT_EDIT_-_SHADOW">
		<path id="SHADOW" opacity="0.4" enable-background="new    " d="M88,49c0,29.633-10.363,40-40,40C18.365,89,8,78.633,8,49
			C8,19.366,18.365,9,48,9C77.637,9,88,19.365,88,49z"/>
	</g>
	<linearGradient id="GRAY_1_1_" gradientUnits="userSpaceOnUse" x1="48" y1="87.989" x2="48" y2="8.01">
		<stop  offset="0" style="stop-color:#288FD7"/>
		<stop  offset="1" style="stop-color:#64BEEA"/>
	</linearGradient>
	<path id="GRAY_1" fill="url(#GRAY_1_1_)" d="M8,47.989c0,29.633,10.365,40,40,40c29.637,0,40-10.367,40-40
		c0-28.985-9.926-39.53-38.091-39.979h-3.817C17.928,8.459,8,19.004,8,47.989z"/>
	
		<linearGradient id="HIGHLIGHT_GRA1_1_" gradientUnits="userSpaceOnUse" x1="400.9805" y1="856.8799" x2="400.9805" y2="936.8799" gradientTransform="matrix(1 0 0 1 -352.9805 -848.8799)">
		<stop  offset="0" style="stop-color:#FCFCFC;stop-opacity:0.2"/>
		<stop  offset="1" style="stop-color:#6F6F6F;stop-opacity:0.3"/>
	</linearGradient>
	<path id="HIGHLIGHT_GRA1" fill="url(#HIGHLIGHT_GRA1_1_)" d="M48,8C18.365,8,8,18.365,8,48c0,29.633,10.365,40,40,40
		c29.637,0,40-10.367,40-40C88,18.365,77.637,8,48,8z M48,87.023C18.842,87.023,9,77.176,9,48S18.842,8.977,48,8.977
		S87,18.824,87,48S77.158,87.023,48,87.023z"/>
	<path opacity="0.02" fill="#001F30" d="M57.438,78.711c-2.753,0-4.993-2.24-4.993-4.993v-0.471h-8.888v0.471
		c0,2.753-2.24,4.993-4.994,4.993h-5.96c-2.753,0-4.993-2.24-4.993-4.993v-2.091c-2.188-1.58-3.477-4.101-3.477-6.85V53.379h-1.464
		c-2.753,0-4.993-2.24-4.993-4.993v-5.96c0-2.753,2.24-4.994,4.993-4.994h1.464v-4.444c0-2.807,1.387-5.426,3.71-7.006
		c3.443-2.83,11.384-4.693,20.158-4.693c8.767,0,16.788,1.923,20.436,4.9c2.089,1.396,3.433,4.022,3.433,6.798v4.444h1.464
		c2.753,0,4.993,2.24,4.993,4.994v5.96c0,2.753-2.24,4.993-4.993,4.993h-1.464v11.398c0,2.749-1.289,5.27-3.477,6.85v2.091
		c0,2.753-2.24,4.993-4.994,4.993H57.438z"/>
	<path opacity="0.04" fill="#001F30" d="M57.438,77.711c-2.202,0-3.993-1.791-3.993-3.993v-1.471H42.556v1.471
		c0,2.202-1.792,3.993-3.994,3.993h-5.96c-2.202,0-3.993-1.791-3.993-3.993v-2.622c-2.16-1.352-3.477-3.719-3.477-6.318V52.379
		h-2.464c-2.202,0-3.993-1.791-3.993-3.993v-5.96c0-2.202,1.792-3.994,3.993-3.994h2.464v-5.444c0-2.475,1.223-4.785,3.272-6.179
		c3.322-2.725,11.042-4.52,19.596-4.52c8.55,0,16.323,1.835,19.804,4.675c1.862,1.25,3.064,3.578,3.064,6.023v5.444h2.464
		c2.202,0,3.993,1.792,3.993,3.994v5.96c0,2.202-1.791,3.993-3.993,3.993h-2.464v12.398c0,2.599-1.317,4.967-3.477,6.318v2.622
		c0,2.202-1.792,3.993-3.994,3.993H57.438z M41.066,49.033h0.188c-0.087-0.211-0.15-0.432-0.188-0.66V49.033z M40.864,44.053
		c0.09,0.233,0.151,0.477,0.18,0.726c0.028-0.249,0.086-0.493,0.174-0.726c-0.088-0.233-0.146-0.477-0.174-0.726
		C41.015,43.577,40.954,43.82,40.864,44.053z M47.466,36.375c0.202,0.173,0.379,0.373,0.527,0.591
		c0.175-0.261,0.393-0.496,0.645-0.692c0.164-0.174,0.345-0.326,0.541-0.454l-2.349,0C47.066,35.973,47.281,36.159,47.466,36.375z"
		/>
	<path opacity="0.06" fill="#001F30" d="M57.438,76.711c-1.65,0-2.993-1.343-2.993-2.993v-2.471H41.556v2.471
		c0,1.65-1.343,2.993-2.994,2.993h-5.96c-1.65,0-2.993-1.343-2.993-2.993v-3.202c-2.133-1.1-3.477-3.282-3.477-5.738V51.379h-3.464
		c-1.65,0-2.993-1.343-2.993-2.993v-5.96c0-1.651,1.343-2.994,2.993-2.994h3.464v-6.444c0-2.144,1.06-4.145,2.835-5.353
		c3.2-2.62,10.698-4.346,19.033-4.346c8.333,0,15.858,1.747,19.172,4.45c1.636,1.102,2.696,3.133,2.696,5.249v6.444h3.464
		c1.65,0,2.993,1.343,2.993,2.994v5.96c0,1.65-1.343,2.993-2.993,2.993h-3.464v13.398c0,2.456-1.344,4.639-3.477,5.738v3.202
		c0,1.65-1.343,2.993-2.994,2.993H57.438z M59.921,59.823c-0.541,0-0.98,0.439-0.98,0.98c0,0.54,0.439,0.979,0.98,0.979
		s0.98-0.439,0.98-0.979C60.901,60.263,60.462,59.823,59.921,59.823z M36.079,59.823c-0.541,0-0.98,0.439-0.98,0.98
		c0,0.54,0.44,0.979,0.98,0.979s0.98-0.439,0.98-0.979C37.059,60.263,36.62,59.823,36.079,59.823z M39.747,44.053
		c0.208,0.321,0.319,0.694,0.319,1.085v4.236c0,0.228-0.039,0.45-0.112,0.659l3.393-0.001l-0.735-0.734
		c-0.378-0.378-0.586-0.88-0.586-1.414v-2.772c0-0.38,0.105-0.744,0.302-1.058c-0.197-0.314-0.302-0.678-0.302-1.059v-1.177h-0.639
		c-0.492,0-0.956-0.176-1.321-0.499v1.649C40.066,43.359,39.955,43.732,39.747,44.053z M47.506,49.578
		c-0.016,0.157-0.05,0.309-0.1,0.454l1.167-0.001c-0.045-0.146-0.074-0.297-0.084-0.453H47.506z M48.494,38.438
		c0.057-0.57,0.357-1.089,0.822-1.423c0.378-0.434,0.927-0.688,1.51-0.688h5.292c0.386,0,0.76,0.114,1.077,0.317
		c0.317-0.204,0.691-0.317,1.081-0.317h5.293c0.106,0,0.212,0.008,0.314,0.024l-0.001-1.536l-31.763,0.006v1.532
		c0.107-0.018,0.217-0.027,0.328-0.027h5.292c0.385,0,0.759,0.114,1.077,0.316c0.315-0.203,0.688-0.316,1.082-0.316h5.292
		c0.61,0,1.191,0.285,1.567,0.757c0.417,0.332,0.689,0.823,0.748,1.354H48.494z"/>
	<path opacity="0.08" fill="#001F30" d="M57.438,75.711c-1.099,0-1.993-0.895-1.993-1.993v-3.471H40.556v3.471
		c0,1.099-0.895,1.993-1.994,1.993h-5.96c-1.099,0-1.993-0.895-1.993-1.993V69.87c-2.082-0.806-3.477-2.799-3.477-5.093V50.379
		h-4.464c-1.099,0-1.993-0.895-1.993-1.993v-5.96c0-1.099,0.894-1.994,1.993-1.994h3.974c0.178,0,0.345,0.046,0.49,0.128v-7.572
		c0-1.813,0.896-3.505,2.397-4.526c3.077-2.514,10.354-4.173,18.471-4.173s15.394,1.658,18.54,4.225
		c1.432,0.969,2.328,2.661,2.328,4.474v7.572c0.145-0.082,0.313-0.128,0.49-0.128h3.974c1.099,0,1.993,0.895,1.993,1.994v5.96
		c0,1.099-0.895,1.993-1.993,1.993h-4.464v14.398c0,2.294-1.395,4.287-3.477,5.093v3.848c0,1.099-0.895,1.993-1.994,1.993H57.438z
		 M59.921,58.823c-1.092,0-1.98,0.889-1.98,1.98s0.889,1.979,1.98,1.979s1.98-0.888,1.98-1.979S61.013,58.823,59.921,58.823z
		 M36.079,58.823c-1.092,0-1.98,0.889-1.98,1.98s0.889,1.979,1.98,1.979s1.98-0.888,1.98-1.979S37.171,58.823,36.079,58.823z
		 M31.119,51.035l33.769-0.007l-0.001-1.533c-0.03,0.251-0.154,0.479-0.344,0.641c-0.155,0.373-0.52,0.616-0.924,0.616h-5.343
		c-0.335,0-0.643-0.167-0.826-0.437c-0.113-0.063-0.211-0.146-0.29-0.243c-0.022,0.022-0.045,0.044-0.069,0.064
		c-0.155,0.373-0.52,0.615-0.923,0.615h-5.343c-0.335,0-0.643-0.167-0.826-0.437c-0.315-0.175-0.516-0.509-0.516-0.875v-0.99
		c-0.145,0.082-0.312,0.128-0.49,0.128h-1.987c-0.178,0-0.345-0.046-0.49-0.128v0.923c0,0.404-0.244,0.77-0.617,0.924
		c-0.124,0.052-0.254,0.076-0.383,0.076c-0.26,0-0.516-0.102-0.707-0.293l-1.49-1.49c-0.188-0.188-0.293-0.442-0.293-0.707v-2.772
		c0-0.265,0.105-0.52,0.293-0.707l0.351-0.351l-0.351-0.352c-0.188-0.188-0.293-0.442-0.293-0.707v-2.177h-1.639
		c-0.265,0-0.52-0.105-0.707-0.293l-1.49-1.49c-0.047-0.047-0.088-0.098-0.125-0.151v4.085c0,0.265-0.105,0.52-0.293,0.707
		l-0.377,0.378l0.377,0.377c0.188,0.188,0.293,0.442,0.293,0.707v4.236c0,0.299-0.133,0.575-0.353,0.763
		c-0.155,0.372-0.52,0.615-0.923,0.615h-5.342c-0.335,0-0.642-0.167-0.826-0.437c-0.269-0.148-0.454-0.412-0.503-0.713V51.035z
		 M61.404,47.261v-2.15c0-0.265,0.105-0.52,0.293-0.707l0.351-0.352l-0.351-0.351c-0.188-0.188-0.293-0.442-0.293-0.707v-2.177
		h-0.98v2.182c0,0.265-0.105,0.52-0.293,0.707l-0.354,0.354l0.355,0.355c0.187,0.188,0.292,0.441,0.292,0.707v2.139H61.404z
		 M53.954,47.261v-2.15c0-0.265,0.105-0.52,0.293-0.707l0.351-0.352l-0.351-0.351c-0.188-0.188-0.293-0.442-0.293-0.707v-2.177
		h-0.98v2.182c0,0.265-0.105,0.52-0.293,0.708l-0.354,0.354l0.354,0.355c0.188,0.188,0.293,0.442,0.293,0.707v2.139H53.954z
		 M35.576,47.261v-2.15c0-0.265,0.105-0.52,0.293-0.707l0.351-0.352l-0.351-0.351c-0.188-0.188-0.293-0.442-0.293-0.707v-2.177
		h-0.98v2.182c0,0.265-0.105,0.52-0.293,0.708l-0.354,0.354l0.354,0.355c0.188,0.188,0.293,0.442,0.293,0.707v2.139H35.576z
		 M64.602,44.43c0.156,0.156,0.255,0.358,0.284,0.575l-0.001-1.899c-0.029,0.214-0.129,0.415-0.283,0.57l-0.378,0.377L64.602,44.43z
		 M31.119,44.98c0.034-0.205,0.131-0.396,0.28-0.545l0.375-0.375l-0.375-0.375c-0.149-0.149-0.246-0.34-0.28-0.545V44.98z
		 M57.191,44.473c0.012-0.013,0.41-0.413,0.41-0.413s-0.403-0.404-0.417-0.42c-0.011,0.012-0.411,0.413-0.411,0.413
		S57.179,44.458,57.191,44.473z M48.994,44.095c0.307,0,0.583,0.139,0.766,0.357c0.005-0.006,0.391-0.392,0.391-0.392l-0.374-0.375
		c-0.022-0.022-0.044-0.045-0.063-0.069c-0.182,0.188-0.437,0.305-0.719,0.305h-1.987c-0.285,0-0.542-0.119-0.724-0.311
		c-0.019,0.022-0.038,0.043-0.059,0.064l-0.377,0.378c0,0,0.39,0.39,0.396,0.396c0.183-0.217,0.458-0.354,0.764-0.354H48.994z
		 M48.994,39.438c0.178,0,0.345,0.046,0.49,0.128v-0.927c0-0.366,0.2-0.7,0.516-0.875c0.184-0.27,0.491-0.437,0.826-0.437h5.292
		c0.351,0,0.671,0.183,0.851,0.474c0.08,0.049,0.152,0.109,0.215,0.178c0.075-0.085,0.164-0.158,0.266-0.214
		c0.184-0.27,0.492-0.438,0.827-0.438h5.293c0.351,0,0.671,0.183,0.852,0.475c0.25,0.154,0.42,0.412,0.464,0.702l-0.002-4.689
		l-33.763,0.006v4.655c0.049-0.3,0.234-0.564,0.501-0.712c0.184-0.27,0.492-0.437,0.827-0.437h5.292c0.35,0,0.671,0.183,0.851,0.475
		c0.134,0.083,0.246,0.195,0.327,0.327c0.012-0.063,0.031-0.124,0.056-0.185c0.155-0.374,0.52-0.617,0.924-0.617h5.292
		c0.35,0,0.671,0.183,0.851,0.475c0.292,0.18,0.476,0.5,0.476,0.852v0.913c0.145-0.082,0.312-0.128,0.49-0.128H48.994z"/>
	<path opacity="0.1" fill="#001F30" d="M33.596,47.951l-1.49,1.49v-4.298l0.755-0.755l0.735,0.735V47.951z M33.596,42.999v-2.87
		l-1.49-1.49v4.34l0.755,0.755L33.596,42.999z M33.938,48.261l-1.49,1.49h5.343l-1.49-1.49H33.938z M36.576,45.111v2.773l1.49,1.49
		v-4.236l-0.758-0.758L36.576,45.111z M36.576,42.995l0.732,0.732l0.758-0.758v-4.314l-1.49,1.49V42.995z M39.897,38.327l1.49,1.49
		H43.7l1.49-1.49H39.897z M59.424,42.999v-2.87l-1.49-1.49v4.34l0.755,0.755L59.424,42.999z M36.249,39.817l1.49-1.49h-5.293
		l1.49,1.49H36.249z M62.078,39.817l1.49-1.49h-5.293l1.49,1.49H62.078z M54.627,39.817l1.49-1.49h-5.293l1.49,1.49H54.627z
		 M51.974,42.999v-2.87l-1.49-1.49v4.34l0.755,0.755L51.974,42.999z M52.316,48.261l-1.49,1.49h5.343l-1.49-1.49H52.316z
		 M59.766,48.261l-1.49,1.49h5.343l-1.49-1.49H59.766z M62.404,45.111v2.773l1.49,1.49v-4.236l-0.758-0.758L62.404,45.111z
		 M59.424,45.122l-0.735-0.735l-0.755,0.755v4.298l1.49-1.49V45.122z M54.954,42.995l0.732,0.732l0.758-0.758v-4.314l-1.49,1.49
		V42.995z M62.404,42.995l0.732,0.732l0.758-0.758v-4.314l-1.49,1.49V42.995z M74.325,42.425v5.96c0,0.549-0.445,0.993-0.993,0.993
		h-5.464v15.398c0,2.127-1.487,3.904-3.477,4.356v4.585c0,0.549-0.445,0.993-0.993,0.993h-5.96c-0.549,0-0.993-0.445-0.993-0.993
		v-4.47H39.556v4.47c0,0.549-0.445,0.993-0.993,0.993h-5.96c-0.549,0-0.993-0.445-0.993-0.993v-4.585
		c-1.99-0.452-3.477-2.229-3.477-4.356V49.379h-5.464c-0.549,0-0.993-0.445-0.993-0.993v-5.96c0-0.549,0.445-0.993,0.993-0.993
		h3.974v5.298h1.49V32.988c0-1.538,0.777-2.895,1.96-3.699c2.875-2.346,9.808-4,17.908-4s15.033,1.654,17.908,4
		c1.183,0.804,1.96,2.161,1.96,3.699V46.73h1.49v-5.298h3.974C73.881,41.432,74.325,41.877,74.325,42.425z M39.059,60.803
		c0-1.646-1.334-2.98-2.98-2.98c-1.646,0-2.98,1.334-2.98,2.98s1.334,2.98,2.98,2.98C37.725,63.784,39.059,62.449,39.059,60.803z
		 M62.901,60.803c0-1.646-1.334-2.98-2.98-2.98c-1.646,0-2.98,1.334-2.98,2.98s1.334,2.98,2.98,2.98
		C61.567,63.784,62.901,62.449,62.901,60.803z M65.881,33.816c0-0.549-0.445-0.993-0.993-0.993H31.112
		c-0.549,0-0.993,0.445-0.993,0.993v17.219c0,0.549,0.445,0.993,0.993,0.993h33.776c0.549,0,0.993-0.445,0.993-0.993V33.816z
		 M51.974,45.122l-0.735-0.735l-0.755,0.755v4.298l1.49-1.49V45.122z M47.007,47.579h1.987v-2.484h-1.987V47.579z M44.026,42.995
		l0.732,0.732l0.758-0.758v-4.314l-1.49,1.49V42.995z M54.954,45.111v2.773l1.49,1.49v-4.236l-0.758-0.758L54.954,45.111z
		 M47.007,42.922h1.987v-2.484h-1.987V42.922z M44.026,45.111v2.773l1.49,1.49v-4.236l-0.758-0.758L44.026,45.111z M54.457,29.014
		c0-0.274-0.222-0.497-0.497-0.497H42.04c-0.274,0-0.497,0.222-0.497,0.497l0,0c0,0.274,0.222,0.497,0.497,0.497H53.96
		C54.235,29.511,54.457,29.289,54.457,29.014L54.457,29.014z"/>
	<linearGradient id="SVGID_1_" gradientUnits="userSpaceOnUse" x1="48" y1="72.7111" x2="48" y2="23.2889">
		<stop  offset="0" style="stop-color:#DBDBDB"/>
		<stop  offset="0.9785" style="stop-color:#FFFFFF"/>
	</linearGradient>
	<path fill="url(#SVGID_1_)" d="M33.596,45.951l-1.49,1.49v-4.298l0.755-0.755l0.735,0.735V45.951z M33.596,40.999v-2.87l-1.49-1.49
		v4.34l0.755,0.755L33.596,40.999z M33.938,46.261l-1.49,1.49h5.343l-1.49-1.49H33.938z M36.576,43.111v2.773l1.49,1.49v-4.236
		l-0.758-0.758L36.576,43.111z M36.576,40.995l0.732,0.732l0.758-0.758v-4.314l-1.49,1.49V40.995z M39.897,36.327l1.49,1.49H43.7
		l1.49-1.49H39.897z M59.424,40.999v-2.87l-1.49-1.49v4.34l0.755,0.755L59.424,40.999z M36.249,37.817l1.49-1.49h-5.293l1.49,1.49
		H36.249z M62.078,37.817l1.49-1.49h-5.293l1.49,1.49H62.078z M54.627,37.817l1.49-1.49h-5.293l1.49,1.49H54.627z M51.974,40.999
		v-2.87l-1.49-1.49v4.34l0.755,0.755L51.974,40.999z M52.316,46.261l-1.49,1.49h5.343l-1.49-1.49H52.316z M59.766,46.261l-1.49,1.49
		h5.343l-1.49-1.49H59.766z M62.404,43.111v2.773l1.49,1.49v-4.236l-0.758-0.758L62.404,43.111z M59.424,43.122l-0.735-0.735
		l-0.755,0.755v4.298l1.49-1.49V43.122z M54.954,40.995l0.732,0.732l0.758-0.758v-4.314l-1.49,1.49V40.995z M62.404,40.995
		l0.732,0.732l0.758-0.758v-4.314l-1.49,1.49V40.995z M74.325,40.425v5.96c0,0.549-0.445,0.993-0.993,0.993h-5.464v15.398
		c0,2.127-1.487,3.904-3.477,4.356v4.585c0,0.549-0.445,0.993-0.993,0.993h-5.96c-0.549,0-0.993-0.445-0.993-0.993v-4.47H39.556
		v4.47c0,0.549-0.445,0.993-0.993,0.993h-5.96c-0.549,0-0.993-0.445-0.993-0.993v-4.585c-1.99-0.452-3.477-2.229-3.477-4.356V47.379
		h-5.464c-0.549,0-0.993-0.445-0.993-0.993v-5.96c0-0.549,0.445-0.993,0.993-0.993h3.974v5.298h1.49V30.988
		c0-1.538,0.777-2.895,1.96-3.699c2.875-2.346,9.808-4,17.908-4s15.033,1.654,17.908,4c1.183,0.804,1.96,2.161,1.96,3.699V44.73
		h1.49v-5.298h3.974C73.881,39.432,74.325,39.877,74.325,40.425z M39.059,58.803c0-1.646-1.334-2.98-2.98-2.98
		c-1.646,0-2.98,1.334-2.98,2.98s1.334,2.98,2.98,2.98C37.725,61.784,39.059,60.449,39.059,58.803z M62.901,58.803
		c0-1.646-1.334-2.98-2.98-2.98c-1.646,0-2.98,1.334-2.98,2.98s1.334,2.98,2.98,2.98C61.567,61.784,62.901,60.449,62.901,58.803z
		 M65.881,31.816c0-0.549-0.445-0.993-0.993-0.993H31.112c-0.549,0-0.993,0.445-0.993,0.993v17.219c0,0.549,0.445,0.993,0.993,0.993
		h33.776c0.549,0,0.993-0.445,0.993-0.993V31.816z M51.974,43.122l-0.735-0.735l-0.755,0.755v4.298l1.49-1.49V43.122z
		 M47.007,45.579h1.987v-2.484h-1.987V45.579z M44.026,40.995l0.732,0.732l0.758-0.758v-4.314l-1.49,1.49V40.995z M54.954,43.111
		v2.773l1.49,1.49v-4.236l-0.758-0.758L54.954,43.111z M47.007,40.922h1.987v-2.484h-1.987V40.922z M44.026,43.111v2.773l1.49,1.49
		v-4.236l-0.758-0.758L44.026,43.111z M54.457,27.014c0-0.274-0.222-0.497-0.497-0.497H42.04c-0.274,0-0.497,0.222-0.497,0.497l0,0
		c0,0.274,0.222,0.497,0.497,0.497H53.96C54.235,27.511,54.457,27.289,54.457,27.014L54.457,27.014z"/>
	<path opacity="0.1" d="M73.332,45.379h-5.464v2h5.464c0.549,0,0.993-0.445,0.993-0.993v-2
		C74.325,44.934,73.881,45.379,73.332,45.379z M28.132,45.379h-5.464c-0.549,0-0.993-0.445-0.993-0.993v2
		c0,0.549,0.445,0.993,0.993,0.993h5.464V45.379z M38.563,70.711h-5.961c-0.549,0-0.993-0.445-0.993-0.993v2
		c0,0.549,0.445,0.993,0.993,0.993h5.961c0.549,0,0.993-0.445,0.993-0.993v-2C39.556,70.266,39.111,70.711,38.563,70.711z
		 M31.609,65.133c-1.99-0.452-3.477-2.229-3.477-4.356v2c0,2.127,1.487,3.904,3.477,4.356V65.133z M64.888,28.822H31.112
		c-0.549,0-0.993,0.445-0.993,0.993v2c0-0.549,0.445-0.993,0.993-0.993h33.776c0.549,0,0.993,0.445,0.993,0.993v-2
		C65.881,29.267,65.437,28.822,64.888,28.822z M56.444,65.247H39.556v2h16.888V65.247z M64.391,65.133v2
		c1.99-0.452,3.477-2.229,3.477-4.356v-2C67.868,62.904,66.381,64.68,64.391,65.133z M63.398,70.711h-5.961
		c-0.549,0-0.993-0.445-0.993-0.993v2c0,0.549,0.445,0.993,0.993,0.993h5.961c0.549,0,0.993-0.445,0.993-0.993v-2
		C64.391,70.266,63.946,70.711,63.398,70.711z"/>
	<g>
		<polygon fill="#FFFFFF" points="62.404,46.537 62.129,46.261 59.766,46.261 59.424,46.604 59.424,46.951 58.623,47.752 
			59.276,47.752 59.766,47.261 62.129,47.261 62.619,47.752 63.272,47.752 62.404,46.884 		"/>
		<polygon fill="#FFFFFF" points="57.934,44.142 58.689,43.387 59.424,44.122 59.424,43.122 58.863,42.561 58.689,42.734 
			58.516,42.561 57.934,43.142 		"/>
		<polygon fill="#FFFFFF" points="63.221,37.327 63.568,37.327 62.404,38.491 62.404,39.144 63.895,37.654 63.895,36.654 		"/>
		<polygon fill="#FFFFFF" points="57.934,37.639 59.424,39.129 59.424,38.476 58.275,37.327 58.622,37.327 57.934,36.639 		"/>
		<polygon fill="#FFFFFF" points="50.484,37.639 51.974,39.129 51.974,38.476 50.825,37.327 51.172,37.327 50.484,36.639 		"/>
		<polygon fill="#FFFFFF" points="58.275,36.327 59.275,37.327 62.568,37.327 63.568,36.327 		"/>
		<polygon fill="#FFFFFF" points="55.512,42.553 54.954,43.111 54.954,44.111 55.686,43.379 56.444,44.138 56.444,43.138 
			55.859,42.553 55.686,42.726 		"/>
		<polygon fill="#FFFFFF" points="50.825,36.327 51.825,37.327 55.117,37.327 56.118,36.327 		"/>
		<path fill="#FFFFFF" d="M65.881,50.035v-1c0,0.549-0.445,0.993-0.993,0.993H31.112c-0.549,0-0.993-0.445-0.993-0.993v1
			c0,0.549,0.445,0.993,0.993,0.993h33.776C65.437,51.028,65.881,50.583,65.881,50.035z"/>
		<path fill="#FFFFFF" d="M30.092,28.289c2.875-2.346,9.808-4,17.908-4s15.033,1.654,17.908,4c1.183,0.804,1.96,2.161,1.96,3.699v-1
			c0-1.538-0.777-2.895-1.96-3.699c-2.875-2.346-9.808-4-17.908-4s-15.033,1.654-17.908,4c-1.183,0.804-1.96,2.161-1.96,3.699v1
			C28.132,30.45,28.909,29.093,30.092,28.289z"/>
		<path fill="#FFFFFF" d="M59.921,62.784c1.646,0,2.98-1.334,2.98-2.98c0-0.171-0.023-0.337-0.05-0.5
			c-0.239,1.407-1.455,2.48-2.93,2.48c-1.475,0-2.691-1.074-2.93-2.48c-0.028,0.163-0.05,0.329-0.05,0.5
			C56.941,61.449,58.275,62.784,59.921,62.784z"/>
		<rect x="67.868" y="44.73" fill="#FFFFFF" width="1.49" height="1"/>
		<path fill="#FFFFFF" d="M42.04,28.511H53.96c0.274,0,0.497-0.222,0.497-0.497c0-0.274-0.222-0.497-0.497-0.497H42.04
			c-0.274,0-0.497,0.222-0.497,0.497C41.543,28.289,41.765,28.511,42.04,28.511z"/>
		<polygon fill="#FFFFFF" points="50.484,44.142 51.239,43.387 51.974,44.122 51.974,43.122 51.412,42.561 51.239,42.734 
			51.065,42.561 50.484,43.142 		"/>
		<polygon fill="#FFFFFF" points="62.963,42.553 62.404,43.111 62.404,44.111 63.136,43.379 63.895,44.138 63.895,43.138 
			63.31,42.553 63.136,42.726 		"/>
		<path fill="#FFFFFF" d="M36.079,62.784c1.646,0,2.98-1.334,2.98-2.98c0-0.171-0.023-0.337-0.05-0.5
			c-0.239,1.407-1.455,2.48-2.93,2.48c-1.475,0-2.691-1.074-2.93-2.48c-0.028,0.163-0.05,0.329-0.05,0.5
			C33.099,61.449,34.433,62.784,36.079,62.784z"/>
		<polygon fill="#FFFFFF" points="37.393,37.327 37.739,37.327 36.576,38.491 36.576,39.144 38.066,37.654 38.066,36.654 		"/>
		<polygon fill="#FFFFFF" points="32.105,44.142 32.86,43.387 33.596,44.122 33.596,43.122 33.034,42.561 32.86,42.734 
			32.687,42.561 32.105,43.142 		"/>
		<polygon fill="#FFFFFF" points="36.576,46.537 36.3,46.261 33.938,46.261 33.596,46.604 33.596,46.951 32.794,47.752 
			33.448,47.752 33.938,47.261 36.3,47.261 36.79,47.752 37.443,47.752 36.576,46.884 		"/>
		<polygon fill="#FFFFFF" points="54.954,46.537 54.678,46.261 52.316,46.261 51.974,46.604 51.974,46.951 51.173,47.752 
			51.826,47.752 52.316,47.261 54.678,47.261 55.168,47.752 55.821,47.752 54.954,46.884 		"/>
		<polygon fill="#FFFFFF" points="32.447,36.327 33.447,37.327 36.739,37.327 37.739,36.327 		"/>
		<path fill="#FFFFFF" d="M73.332,39.432h-3.974v1h3.974c0.549,0,0.993,0.445,0.993,0.993v-1
			C74.325,39.877,73.881,39.432,73.332,39.432z"/>
		<rect x="26.642" y="44.73" fill="#FFFFFF" width="1.49" height="1"/>
		<path fill="#FFFFFF" d="M22.668,40.432h3.974v-1h-3.974c-0.549,0-0.993,0.445-0.993,0.993v1
			C21.675,40.877,22.119,40.432,22.668,40.432z"/>
		<polygon fill="#FFFFFF" points="32.105,37.639 33.596,39.129 33.596,38.476 32.447,37.327 32.794,37.327 32.105,36.639 		"/>
		<rect x="47.007" y="43.095" fill="#FFFFFF" width="1.987" height="1"/>
		<polygon fill="#FFFFFF" points="37.134,42.553 36.576,43.111 36.576,44.111 37.307,43.379 38.066,44.138 38.066,43.138 
			37.481,42.553 37.308,42.726 		"/>
		<rect x="47.007" y="38.438" fill="#FFFFFF" width="1.987" height="1"/>
		<polygon fill="#FFFFFF" points="55.771,37.327 56.118,37.327 54.954,38.491 54.954,39.144 56.444,37.654 56.444,36.654 		"/>
		<polygon fill="#FFFFFF" points="44.843,37.327 45.19,37.327 44.026,38.491 44.026,39.144 45.516,37.654 45.516,36.654 		"/>
		<polygon fill="#FFFFFF" points="45.19,36.327 39.897,36.327 40.897,37.327 44.19,37.327 		"/>
		<polygon fill="#FFFFFF" points="44.585,42.553 44.026,43.111 44.026,44.111 44.758,43.379 45.516,44.138 45.516,43.138 
			44.932,42.553 44.758,42.726 		"/>
	</g>
</g>
<g id="图层_2">
</g>
<g id="图层_3">
</g>
</svg>
