<?xml version="1.0" encoding="utf-8"?>
<!-- Generator: Adobe Illustrator 17.1.0, SVG Export Plug-In . SVG Version: 6.00 Build 0)  -->
<!DOCTYPE svg PUBLIC "-//W3C//DTD SVG 1.1//EN" "http://www.w3.org/Graphics/SVG/1.1/DTD/svg11.dtd" [
	<!ENTITY ns_extend "http://ns.adobe.com/Extensibility/1.0/">
	<!ENTITY ns_ai "http://ns.adobe.com/AdobeIllustrator/10.0/">
	<!ENTITY ns_graphs "http://ns.adobe.com/Graphs/1.0/">
	<!ENTITY ns_vars "http://ns.adobe.com/Variables/1.0/">
	<!ENTITY ns_imrep "http://ns.adobe.com/ImageReplacement/1.0/">
	<!ENTITY ns_sfw "http://ns.adobe.com/SaveForWeb/1.0/">
	<!ENTITY ns_custom "http://ns.adobe.com/GenericCustomNamespace/1.0/">
	<!ENTITY ns_adobe_xpath "http://ns.adobe.com/XPath/1.0/">
]>
<svg version="1.1" id="图层_1" xmlns:x="&ns_extend;" xmlns:i="&ns_ai;" xmlns:graph="&ns_graphs;"
	 xmlns="http://www.w3.org/2000/svg" xmlns:xlink="http://www.w3.org/1999/xlink" x="0px" y="0px" width="30px" height="30px"
	 viewBox="0 0 30 30" enable-background="new 0 0 30 30" xml:space="preserve">
<metadata>
	<sfw  xmlns="&ns_sfw;">
		<slices></slices>
		<sliceSourceBounds  height="30" width="30" x="164" y="36" bottomLeftOrigin="true"></sliceSourceBounds>
	</sfw>
</metadata>
<g>
	<path fill-opacity="0.15" d="M15,26.048c-0.937,0-1.7-0.763-1.7-1.7c0-0.937,0.762-1.7,1.7-1.7c-1.026,0-2.006-0.203-2.9-0.571
		c0.846,0.369,1.245,1.354,0.891,2.209c-0.264,0.637-0.881,1.049-1.57,1.049c0,0,0,0,0,0c-0.224,0-0.443-0.044-0.652-0.13
		c-0.418-0.173-0.745-0.5-0.919-0.92c-0.174-0.419-0.174-0.881,0-1.301c0.264-0.637,0.881-1.049,1.571-1.049
		c0.214,0,0.424,0.04,0.623,0.119c-1.849-0.778-3.33-2.262-4.104-4.112c0.345,0.863-0.068,1.848-0.928,2.204
		c-0.207,0.086-0.426,0.129-0.649,0.129c-0.691,0-1.307-0.412-1.571-1.05c-0.173-0.42-0.173-0.881,0-1.301
		c0.174-0.42,0.5-0.746,0.92-0.92c0.206-0.086,0.425-0.129,0.649-0.129c0.682,0,1.293,0.403,1.562,1.028
		C7.555,17.008,7.351,16.027,7.351,15c0-3.175,1.945-5.905,4.706-7.06c-0.203,0.081-0.415,0.122-0.632,0.122l0,0
		c-0.69,0-1.307-0.412-1.571-1.049c-0.358-0.866,0.055-1.862,0.92-2.221c0.208-0.086,0.427-0.129,0.65-0.129
		c0.69,0,1.307,0.412,1.571,1.049c0.355,0.859-0.048,1.846-0.899,2.212C12.992,7.555,13.973,7.351,15,7.351
		c-0.937,0-1.7-0.762-1.7-1.7s0.762-1.7,1.7-1.7c0.937,0,1.7,0.762,1.7,1.7s-0.763,1.7-1.7,1.7c1.03,0,2.013,0.205,2.911,0.576
		c-0.853-0.365-1.257-1.353-0.902-2.213c0.265-0.639,0.881-1.05,1.571-1.05c0.224,0,0.442,0.044,0.651,0.13
		c0.42,0.174,0.746,0.501,0.92,0.92c0.173,0.42,0.173,0.882-0.001,1.301c-0.263,0.636-0.88,1.049-1.57,1.049l0,0
		c-0.219,0-0.432-0.042-0.636-0.124c2.76,1.155,4.705,3.885,4.705,7.06c0,1.024-0.203,2.002-0.569,2.895
		c0.273-0.618,0.88-1.015,1.557-1.015c0.223,0,0.442,0.043,0.649,0.129c0.866,0.36,1.278,1.357,0.92,2.222
		c-0.264,0.637-0.88,1.049-1.569,1.049c-0.001,0,0,0-0.001,0c-0.224,0-0.443-0.044-0.651-0.13c-0.854-0.354-1.267-1.33-0.933-2.189
		c-1.159,2.751-3.884,4.688-7.052,4.688c0.937,0,1.7,0.763,1.7,1.7C16.7,25.285,15.937,26.048,15,26.048z M18.575,25.338
		c-0.691,0-1.307-0.412-1.57-1.051c-0.173-0.417-0.174-0.879-0.001-1.299c0.174-0.42,0.501-0.747,0.92-0.92
		c0.207-0.086,0.427-0.129,0.651-0.129c0.69,0,1.306,0.412,1.57,1.049c0.173,0.421,0.173,0.882,0,1.301
		c-0.174,0.42-0.501,0.746-0.921,0.92C19.018,25.295,18.799,25.338,18.575,25.338z M21.611,23.31c-0.454,0-0.881-0.177-1.202-0.498
		c-0.321-0.321-0.498-0.748-0.498-1.202s0.177-0.881,0.498-1.202c0.321-0.321,0.748-0.498,1.202-0.498s0.881,0.177,1.202,0.498
		c0.321,0.321,0.498,0.748,0.498,1.202s-0.177,0.881-0.498,1.202S22.064,23.31,21.611,23.31z M8.389,23.31
		c-0.454,0-0.881-0.177-1.202-0.498S6.69,22.064,6.69,21.611s0.177-0.881,0.498-1.202c0.321-0.321,0.748-0.498,1.202-0.498
		c0.454,0,0.881,0.177,1.202,0.498c0.321,0.321,0.498,0.748,0.498,1.202s-0.177,0.881-0.498,1.202
		C9.271,23.133,8.844,23.31,8.389,23.31z M24.348,16.7c-0.937,0-1.7-0.762-1.7-1.7s0.763-1.7,1.7-1.7c0.937,0,1.7,0.762,1.7,1.7
		S25.285,16.7,24.348,16.7z M5.652,16.7c-0.937,0-1.7-0.762-1.7-1.7s0.762-1.7,1.7-1.7s1.7,0.762,1.7,1.7S6.589,16.7,5.652,16.7z
		 M23.638,13.125c-0.691,0-1.307-0.412-1.57-1.05c-0.174-0.418-0.174-0.881,0-1.301c0.173-0.419,0.5-0.746,0.92-0.92
		c0.208-0.086,0.427-0.129,0.65-0.129c0.691,0,1.308,0.412,1.571,1.05c0.359,0.866-0.055,1.862-0.92,2.22
		C24.08,13.081,23.862,13.125,23.638,13.125L23.638,13.125z M6.364,13.12c-0.224,0-0.443-0.044-0.65-0.13
		c-0.866-0.359-1.279-1.355-0.92-2.221C5.058,10.132,5.674,9.72,6.364,9.72c0.224,0,0.443,0.044,0.651,0.13
		c0.419,0.174,0.746,0.5,0.92,0.92c0.173,0.42,0.173,0.881,0,1.301C7.67,12.708,7.054,13.12,6.364,13.12L6.364,13.12z
		 M21.611,10.089c-0.454,0-0.881-0.177-1.202-0.498c-0.321-0.32-0.498-0.747-0.498-1.202c0-0.454,0.177-0.881,0.498-1.202
		c0.321-0.321,0.748-0.498,1.202-0.498s0.881,0.177,1.202,0.498s0.498,0.748,0.498,1.202c0,0.454-0.177,0.881-0.498,1.202
		C22.491,9.912,22.064,10.089,21.611,10.089z M8.389,10.089c-0.454,0-0.881-0.177-1.202-0.498C6.867,9.271,6.69,8.844,6.69,8.389
		c0-0.454,0.177-0.881,0.498-1.202S7.936,6.69,8.389,6.69c0.454,0,0.881,0.177,1.202,0.498c0.321,0.321,0.498,0.747,0.498,1.201
		c0,0.454-0.177,0.881-0.498,1.202C9.271,9.912,8.844,10.089,8.389,10.089z"/>
	<path fill-opacity="0.3" d="M15,20.949c-3.749,0-6.799-3.05-6.799-6.799S11.251,7.351,15,7.351s6.799,3.05,6.799,6.799
		S18.749,20.949,15,20.949z M15,3.952c-0.469,0-0.85,0.38-0.85,0.85s0.38,0.85,0.85,0.85s0.85-0.38,0.85-0.85S15.469,3.952,15,3.952
		z M15,22.649c-0.469,0-0.85,0.38-0.85,0.85s0.38,0.85,0.85,0.85s0.85-0.38,0.85-0.85S15.469,22.649,15,22.649z M24.348,13.3
		c-0.469,0-0.85,0.38-0.85,0.85s0.38,0.85,0.85,0.85s0.85-0.38,0.85-0.85S24.818,13.3,24.348,13.3z M5.652,13.3
		c-0.469,0-0.85,0.38-0.85,0.85S5.182,15,5.652,15c0.469,0,0.85-0.38,0.85-0.85S6.121,13.3,5.652,13.3z M22.211,6.939
		c-0.332-0.332-0.87-0.332-1.202,0s-0.332,0.87,0,1.202s0.87,0.332,1.202,0S22.543,7.271,22.211,6.939z M8.991,20.16
		c-0.332-0.332-0.87-0.332-1.202,0c-0.332,0.332-0.332,0.87,0,1.202c0.332,0.332,0.87,0.332,1.202,0S9.322,20.491,8.991,20.16z
		 M22.211,20.16c-0.332-0.332-0.87-0.332-1.202,0s-0.332,0.87,0,1.202s0.87,0.332,1.202,0S22.543,20.491,22.211,20.16z M8.991,6.939
		c-0.332-0.332-0.87-0.332-1.202,0c-0.332,0.332-0.332,0.87,0,1.202c0.332,0.332,0.87,0.332,1.202,0S9.322,7.271,8.991,6.939z
		 M24.423,10.25c-0.18-0.434-0.677-0.64-1.11-0.46c-0.434,0.18-0.64,0.677-0.46,1.11c0.18,0.434,0.677,0.64,1.11,0.46
		C24.397,11.181,24.603,10.684,24.423,10.25z M7.147,17.4c-0.18-0.434-0.677-0.64-1.11-0.46c-0.434,0.18-0.64,0.677-0.46,1.11
		s0.677,0.64,1.11,0.46C7.121,18.331,7.327,17.834,7.147,17.4z M19.36,22.463c-0.18-0.434-0.677-0.64-1.11-0.46
		c-0.434,0.179-0.64,0.677-0.46,1.11c0.18,0.434,0.677,0.64,1.11,0.46S19.54,22.897,19.36,22.463z M12.21,5.187
		c-0.18-0.434-0.677-0.64-1.11-0.46s-0.64,0.677-0.46,1.11c0.179,0.434,0.677,0.64,1.11,0.46S12.39,5.621,12.21,5.187z
		 M24.421,18.055c0.18-0.434-0.026-0.931-0.46-1.111c-0.434-0.18-0.931,0.026-1.111,0.46c-0.18,0.434,0.026,0.931,0.46,1.111
		C23.744,18.695,24.241,18.489,24.421,18.055z M7.149,10.896c0.18-0.434-0.026-0.931-0.46-1.111c-0.434-0.18-0.931,0.026-1.111,0.46
		c-0.18,0.434,0.026,0.931,0.46,1.111C6.472,11.535,6.969,11.329,7.149,10.896z M12.205,23.111c0.18-0.434-0.026-0.931-0.46-1.111
		s-0.931,0.026-1.111,0.46s0.026,0.931,0.46,1.111S12.025,23.545,12.205,23.111z M19.365,5.84c0.18-0.434-0.026-0.931-0.46-1.111
		s-0.931,0.026-1.111,0.46c-0.18,0.434,0.026,0.931,0.46,1.111C18.688,6.479,19.185,6.273,19.365,5.84z"/>
	<rect fill="none" width="30" height="30"/>
	<path fill="#FFFFFF" d="M15,21.799c-3.749,0-6.799-3.05-6.799-6.799S11.251,8.201,15,8.201s6.799,3.05,6.799,6.799
		S18.749,21.799,15,21.799z M15,4.802c-0.469,0-0.85,0.38-0.85,0.85c0,0.469,0.38,0.85,0.85,0.85s0.85-0.38,0.85-0.85
		C15.85,5.182,15.469,4.802,15,4.802z M15,23.499c-0.469,0-0.85,0.38-0.85,0.85s0.38,0.85,0.85,0.85s0.85-0.38,0.85-0.85
		S15.469,23.499,15,23.499z M24.348,14.15c-0.469,0-0.85,0.38-0.85,0.85s0.38,0.85,0.85,0.85s0.85-0.38,0.85-0.85
		S24.818,14.15,24.348,14.15z M5.652,14.15c-0.469,0-0.85,0.38-0.85,0.85s0.38,0.85,0.85,0.85c0.469,0,0.85-0.38,0.85-0.85
		S6.121,14.15,5.652,14.15z M22.211,7.789c-0.332-0.332-0.87-0.332-1.202,0c-0.332,0.332-0.332,0.87,0,1.202s0.87,0.332,1.202,0
		S22.543,8.121,22.211,7.789z M8.991,21.009c-0.332-0.332-0.87-0.332-1.202,0c-0.332,0.332-0.332,0.87,0,1.202
		c0.332,0.332,0.87,0.332,1.202,0S9.322,21.341,8.991,21.009z M22.211,21.009c-0.332-0.332-0.87-0.332-1.202,0s-0.332,0.87,0,1.202
		s0.87,0.332,1.202,0S22.543,21.341,22.211,21.009z M8.991,7.789c-0.332-0.332-0.87-0.332-1.202,0c-0.332,0.332-0.332,0.87,0,1.202
		c0.332,0.332,0.87,0.332,1.202,0S9.322,8.121,8.991,7.789z M24.423,11.1c-0.18-0.434-0.677-0.64-1.11-0.46
		c-0.434,0.179-0.64,0.677-0.46,1.11c0.18,0.434,0.677,0.64,1.11,0.46C24.397,12.031,24.603,11.534,24.423,11.1z M7.147,18.25
		c-0.18-0.434-0.677-0.64-1.11-0.46c-0.434,0.18-0.64,0.677-0.46,1.11s0.677,0.64,1.11,0.46C7.121,19.181,7.327,18.684,7.147,18.25z
		 M19.36,23.313c-0.18-0.434-0.677-0.64-1.11-0.46c-0.434,0.18-0.64,0.677-0.46,1.11s0.677,0.64,1.11,0.46
		S19.54,23.747,19.36,23.313z M12.21,6.037c-0.18-0.434-0.677-0.64-1.11-0.46s-0.64,0.677-0.46,1.11
		c0.179,0.434,0.677,0.64,1.11,0.46S12.39,6.471,12.21,6.037z M24.421,18.905c0.18-0.434-0.026-0.931-0.46-1.111
		c-0.434-0.18-0.931,0.026-1.111,0.46s0.026,0.931,0.46,1.111C23.744,19.545,24.241,19.339,24.421,18.905z M7.149,11.746
		c0.18-0.434-0.026-0.931-0.46-1.111c-0.434-0.18-0.931,0.026-1.111,0.46c-0.18,0.434,0.026,0.931,0.46,1.111
		C6.472,12.385,6.969,12.179,7.149,11.746z M12.205,23.961c0.18-0.434-0.026-0.931-0.46-1.111s-0.931,0.026-1.111,0.46
		c-0.18,0.434,0.026,0.931,0.46,1.111S12.025,24.395,12.205,23.961z M19.365,6.69c0.18-0.434-0.026-0.931-0.46-1.111
		c-0.434-0.18-0.931,0.026-1.111,0.46c-0.18,0.434,0.026,0.931,0.46,1.111S19.185,7.123,19.365,6.69z"/>
</g>
</svg>
