<?xml version="1.0" encoding="utf-8"?>
<!-- Generator: Adobe Illustrator 17.1.0, SVG Export Plug-In . SVG Version: 6.00 Build 0)  -->
<!DOCTYPE svg PUBLIC "-//W3C//DTD SVG 1.1//EN" "http://www.w3.org/Graphics/SVG/1.1/DTD/svg11.dtd" [
	<!ENTITY ns_extend "http://ns.adobe.com/Extensibility/1.0/">
	<!ENTITY ns_ai "http://ns.adobe.com/AdobeIllustrator/10.0/">
	<!ENTITY ns_graphs "http://ns.adobe.com/Graphs/1.0/">
	<!ENTITY ns_vars "http://ns.adobe.com/Variables/1.0/">
	<!ENTITY ns_imrep "http://ns.adobe.com/ImageReplacement/1.0/">
	<!ENTITY ns_sfw "http://ns.adobe.com/SaveForWeb/1.0/">
	<!ENTITY ns_custom "http://ns.adobe.com/GenericCustomNamespace/1.0/">
	<!ENTITY ns_adobe_xpath "http://ns.adobe.com/XPath/1.0/">
]>
<svg version="1.1" id="图层_1" xmlns:x="&ns_extend;" xmlns:i="&ns_ai;" xmlns:graph="&ns_graphs;"
	 xmlns="http://www.w3.org/2000/svg" xmlns:xlink="http://www.w3.org/1999/xlink" x="0px" y="0px" width="30px" height="30px"
	 viewBox="0 0 30 30" enable-background="new 0 0 30 30" xml:space="preserve">
<metadata>
</metadata>
<g id="DO_NOT_EDIT_-_BOUNDING_BOX">
	<rect id="BOUNDING_BOX" fill="none" width="30" height="30"/>
</g>
<g id="PLACE_YOUR_GRAPHIC_HERE">
	<path opacity="0.15" enable-background="new    " d="M26.204,4.729H25.11c-2.244,0-3.947,0.002-5.238,0.007
		c-0.015-0.001-0.028-0.007-0.043-0.007h-8.95H8.851H3.796c-1.03,0-1.867,0.838-1.867,1.867v2.914v0.821v10.991v1.308v0.773
		c0,1.03,0.837,1.867,1.867,1.867h2.64H6.71H7.53h9.45h0.708h8.516c1.03,0,1.867-0.838,1.867-1.867V22.63v-0.321V6.597
		C28.072,5.567,27.234,4.729,26.204,4.729z"/>
	<path opacity="0.3" enable-background="new    " d="M6.436,23.403h6.583l-3.29-3.291L6.436,23.403z M9.067,15.49l3.95-3.951
		L6.21,4.729H3.796c-0.514,0-0.934,0.42-0.934,0.934v3.735L2.92,9.341L9.067,15.49z M19.829,4.729H8.851l5.489,5.489L19.829,4.729z
		 M2.862,13.246v8.451l4.225-4.225L2.862,13.246z M26.204,4.729H25.11l-4.668,4.668l6.696,6.696V5.663
		C27.138,5.15,26.719,4.729,26.204,4.729z M16.184,22.606l0.796,0.797h9.224c0.514,0,0.934-0.42,0.934-0.934v-1.094l-4.862-4.862
		L16.184,22.606z M17.801,12.038l-6.091,6.092l3.155,3.155l6.091-6.092L17.801,12.038z"/>
	<path opacity="0.15" enable-background="new    " d="M6.436,24.337h6.583l-3.29-3.291L6.436,24.337z M9.067,16.424l3.95-3.951
		L6.21,5.663H3.796c-0.514,0-0.934,0.42-0.934,0.934v3.735l0.058-0.057L9.067,16.424z M19.829,5.663H8.851l5.489,5.489L19.829,5.663
		z M2.862,14.179v8.451l4.225-4.225L2.862,14.179z M26.204,5.663H25.11l-4.668,4.668l6.696,6.696V6.597
		C27.138,6.083,26.719,5.663,26.204,5.663z M16.184,23.54l0.796,0.797h9.224c0.514,0,0.934-0.42,0.934-0.934v-1.094l-4.862-4.862
		L16.184,23.54z M17.801,12.972l-6.091,6.092l3.155,3.155l6.091-6.092L17.801,12.972z"/>
	<path fill="#FFFFFF" d="M6.436,24.337h6.583l-3.29-3.291L6.436,24.337z M9.067,16.424l3.95-3.951L6.21,5.663H3.796
		c-0.514,0-0.934,0.42-0.934,0.934v3.735l0.058-0.057L9.067,16.424z M19.829,5.663H8.851l5.489,5.489L19.829,5.663z M2.862,14.179
		v8.451l4.225-4.225L2.862,14.179z M26.204,5.663H25.11l-4.668,4.668l6.696,6.696V6.597C27.138,6.083,26.719,5.663,26.204,5.663z
		 M16.184,23.54l0.796,0.797h9.224c0.514,0,0.934-0.42,0.934-0.934v-1.094l-4.862-4.862L16.184,23.54z M17.801,12.972l-6.091,6.092
		l3.155,3.155l6.091-6.092L17.801,12.972z"/>
</g>
</svg>
