<?xml version="1.0" encoding="utf-8"?>
<!-- Generator: Adobe Illustrator 17.1.0, SVG Export Plug-In . SVG Version: 6.00 Build 0)  -->
<!DOCTYPE svg PUBLIC "-//W3C//DTD SVG 1.1//EN" "http://www.w3.org/Graphics/SVG/1.1/DTD/svg11.dtd" [
	<!ENTITY ns_extend "http://ns.adobe.com/Extensibility/1.0/">
	<!ENTITY ns_ai "http://ns.adobe.com/AdobeIllustrator/10.0/">
	<!ENTITY ns_graphs "http://ns.adobe.com/Graphs/1.0/">
	<!ENTITY ns_vars "http://ns.adobe.com/Variables/1.0/">
	<!ENTITY ns_imrep "http://ns.adobe.com/ImageReplacement/1.0/">
	<!ENTITY ns_sfw "http://ns.adobe.com/SaveForWeb/1.0/">
	<!ENTITY ns_custom "http://ns.adobe.com/GenericCustomNamespace/1.0/">
	<!ENTITY ns_adobe_xpath "http://ns.adobe.com/XPath/1.0/">
]>
<svg version="1.1" id="图层_1" xmlns:x="&ns_extend;" xmlns:i="&ns_ai;" xmlns:graph="&ns_graphs;"
	 xmlns="http://www.w3.org/2000/svg" xmlns:xlink="http://www.w3.org/1999/xlink" x="0px" y="0px" width="30px" height="30px"
	 viewBox="0 0 30 30" enable-background="new 0 0 30 30" xml:space="preserve">
<metadata>
</metadata>
<path fill-opacity="0.15" d="M24.707,16.293C24.516,16.102,24.26,16,24,16c-0.129,0-0.259,0.025-0.383,0.076
	C23.243,16.231,23,16.596,23,17v1h-2c-0.909,0-1.438-0.268-2.015-1.02L17.484,15l1.497-1.975C19.563,12.268,20.091,12,21,12h2v1
	c0,0.405,0.243,0.768,0.617,0.924C23.741,13.975,23.871,14,24,14c0.26,0,0.516-0.102,0.707-0.293l4-4
	c0.391-0.391,0.391-1.023,0-1.414l-4-4C24.516,4.102,24.26,4,24,4c-0.129,0-0.259,0.025-0.383,0.076C23.243,4.23,23,4.596,23,5v1h-2
	c-2.779,0-5.065,1.141-6.797,3.396l-0.482,0.637L13.235,9.39C11.507,7.141,9.221,6,6.441,6H2C1.447,6,1,6.447,1,7v4
	c0,0.553,0.447,1,1,1h4.441c0.909,0,1.438,0.268,2.015,1.02L9.957,15L8.46,16.975C7.879,17.733,7.351,18,6.441,18H2
	c-0.553,0-1,0.447-1,1v4c0,0.553,0.447,1,1,1h4.441c2.779,0,5.065-1.141,6.797-3.396l0.482-0.637l0.486,0.643
	C15.935,22.86,18.221,24,21,24h2v1c0,0.404,0.243,0.768,0.617,0.924C23.741,25.975,23.871,26,24,26c0.26,0,0.516-0.102,0.707-0.293
	l4-4c0.391-0.391,0.391-1.023,0-1.414L24.707,16.293z"/>
<path fill-opacity="0.3" d="M9.253,11.416l0.076,0.101l2.469-3.258C10.628,7.033,8.945,6,6.441,6H2v4h4.441
	C7.666,10,8.485,10.416,9.253,11.416z M24,18h-3c-1.225,0-2.044-0.416-2.812-1.416l-0.076-0.102l-2.469,3.258
	C16.813,20.967,18.496,22,21,22h3v2l4-4l-4-4V18z M21,10h3v2l4-4l-4-4v2h-3c-3,0-4.832,1.479-6,3l-5.747,7.584
	C8.485,17.584,7.666,18,6.441,18H2v4h4.441c3,0,4.832-1.479,6-3l5.747-7.584C18.956,10.416,19.775,10,21,10z"/>
<path fill="#FFFFFF" d="M9.253,12.416l0.076,0.101l2.469-3.258C10.628,8.033,8.945,7,6.441,7H2v4h4.441
	C7.666,11,8.485,11.416,9.253,12.416z M24,19h-3c-1.225,0-2.044-0.416-2.812-1.416l-0.076-0.102l-2.469,3.258
	C16.813,21.967,18.496,23,21,23h3v2l4-4l-4-4V19z M21,11h3v2l4-4l-4-4v2h-3c-3,0-4.832,1.479-6,3l-5.747,7.584
	C8.485,18.584,7.666,19,6.441,19H2v4h4.441c3,0,4.832-1.479,6-3l5.747-7.584C18.956,11.416,19.775,11,21,11z"/>
<rect fill="none" width="30" height="30"/>
</svg>
